<?xml version="1.0" encoding="UTF-8" standalone="no"?>
<!-- Generator: Adobe Illustrator 18.1.1, SVG Export Plug-In . SVG Version: 6.00 Build 0)  -->

<svg
   xmlns:dc="http://purl.org/dc/elements/1.1/"
   xmlns:cc="http://creativecommons.org/ns#"
   xmlns:rdf="http://www.w3.org/1999/02/22-rdf-syntax-ns#"
   xmlns:svg="http://www.w3.org/2000/svg"
   xmlns="http://www.w3.org/2000/svg"
   xmlns:sodipodi="http://sodipodi.sourceforge.net/DTD/sodipodi-0.dtd"
   xmlns:inkscape="http://www.inkscape.org/namespaces/inkscape"
   version="1.1"
   id="Capa_1"
   x="0px"
   y="0px"
   viewBox="0 0 22 22"
   xml:space="preserve"
   inkscape:version="0.48.5 r10040"
   width="100%"
   height="100%"
   sodipodi:docname="draw-brush.svg"><metadata
   id="metadata7625"><rdf:RDF><cc:Work
       rdf:about=""><dc:format>image/svg+xml</dc:format><dc:type
         rdf:resource="http://purl.org/dc/dcmitype/StillImage" /></cc:Work></rdf:RDF></metadata><defs
   id="defs7623" /><sodipodi:namedview
   pagecolor="#ffffff"
   bordercolor="#666666"
   borderopacity="1"
   objecttolerance="10"
   gridtolerance="10"
   guidetolerance="10"
   inkscape:pageopacity="0"
   inkscape:pageshadow="2"
   inkscape:window-width="1366"
   inkscape:window-height="706"
   id="namedview7621"
   showgrid="false"
   inkscape:zoom="22.627417"
   inkscape:cx="13.978444"
   inkscape:cy="13.738988"
   inkscape:window-x="-8"
   inkscape:window-y="-8"
   inkscape:window-maximized="1"
   inkscape:current-layer="Capa_1" />
<g
   id="g7587"
   transform="matrix(0,0.77596028,-0.77596924,0,20.000388,2.0003879)"
   style="fill:#7f7f7f;fill-opacity:1">
	<path
   style="fill:#7f7f7f;fill-opacity:1"
   d="M 17.604,13.732 7.471,3.6 8.195,2.877 18.326,13.009 17.604,13.732 z"
   id="path8246" /><path
   style="fill:#7f7f7f;fill-opacity:1"
   d="M 4.714,6.361 14.842,16.49 16.674,14.658 6.545,4.529 4.714,6.361 z"
   id="path8244" /><path
   style="fill:#7f7f7f;fill-opacity:1"
   d="M 3.788,7.286 2.878,8.195 13.005,18.327 13.914,17.418 3.788,7.286 z"
   id="path8242" /><path
   style="fill:#7f7f7f;fill-opacity:1"
   d="m 18.70732,13.325989 -5.318,5.32 5.174,2.26 2.407,-2.405 -2.263,-5.175 z"
   id="path8240"
   inkscape:connector-curvature="0" /><path
   style="fill:#7f7f7f;fill-opacity:1"
   d="m 22.657312,22.139318 -1.207,-2.761 c -0.054,-0.119 -0.16,-0.205 -0.288,-0.229 -0.129,-0.023 -0.258,0.018 -0.352,0.108 l -1.555,1.556 c -0.092,0.092 -0.133,0.223 -0.107,0.352 0.023,0.127 0.109,0.234 0.229,0.287 l 2.762,1.205 c 0.147,0.065 0.32,0.033 0.437,-0.08 0.111,-0.117 0.146,-0.29 0.081,-0.438 z"
   id="path8238"
   inkscape:connector-curvature="0" /><path
   style="fill:#7f7f7f;fill-opacity:1"
   d="m 7.7120157,2.3930114 -1.899,-1.89700005 c -0.154,-0.154 -0.403,-0.154 -0.556,0 L 0.49501574,5.2570114 c -0.154,0.154 -0.154,0.403 0,0.557 l 1.89699996,1.896 c 0.154,0.154 0.403,0.154 0.557,0 l 4.762,-4.761 c 0.153,-0.154 0.153,-0.403 0.001,-0.556 z"
   id="path7589"
   inkscape:connector-curvature="0" />
</g>
<g
   id="g7591"
   transform="translate(0,-1.197)">
</g>
<g
   id="g7593"
   transform="translate(0,-1.197)">
</g>
<g
   id="g7595"
   transform="translate(0,-1.197)">
</g>
<g
   id="g7597"
   transform="translate(0,-1.197)">
</g>
<g
   id="g7599"
   transform="translate(0,-1.197)">
</g>
<g
   id="g7601"
   transform="translate(0,-1.197)">
</g>
<g
   id="g7603"
   transform="translate(0,-1.197)">
</g>
<g
   id="g7605"
   transform="translate(0,-1.197)">
</g>
<g
   id="g7607"
   transform="translate(0,-1.197)">
</g>
<g
   id="g7609"
   transform="translate(0,-1.197)">
</g>
<g
   id="g7611"
   transform="translate(0,-1.197)">
</g>
<g
   id="g7613"
   transform="translate(0,-1.197)">
</g>
<g
   id="g7615"
   transform="translate(0,-1.197)">
</g>
<g
   id="g7617"
   transform="translate(0,-1.197)">
</g>
<g
   id="g7619"
   transform="translate(0,-1.197)">
</g>
<path
   inkscape:connector-curvature="0"
   style="fill:#7f7f7f;fill-opacity:1"
   d="M 14.738264,5.3260024 14.032908,4.6198785 6.1707872,12.478027 6.8761432,13.183375 14.738264,5.3260024 z"
   id="path8141-1" /><path
   inkscape:connector-curvature="0"
   style="fill:#7f7f7f;fill-opacity:1"
   d="M 17.428532,8.0162707 16.723176,7.3101464 8.8610552,15.168296 9.5664112,15.873643 17.428532,8.0162707 z"
   id="path8141-7" /><path
   inkscape:connector-curvature="0"
   style="fill:#7f7f7f;fill-opacity:1"
   d="m 19.553436,20.589277 0.02205,-0.662839 -15.7863324,-0.0061 0.032057,0.670596 z"
   id="path8141-1-0"
   sodipodi:nodetypes="ccccc" /></svg>