<?xml version="1.0" encoding="UTF-8" standalone="no"?>
<!-- Generator: Adobe Illustrator 16.0.0, SVG Export Plug-In . SVG Version: 6.00 Build 0)  -->

<svg
   xmlns:dc="http://purl.org/dc/elements/1.1/"
   xmlns:cc="http://creativecommons.org/ns#"
   xmlns:rdf="http://www.w3.org/1999/02/22-rdf-syntax-ns#"
   xmlns:svg="http://www.w3.org/2000/svg"
   xmlns="http://www.w3.org/2000/svg"
   xmlns:sodipodi="http://sodipodi.sourceforge.net/DTD/sodipodi-0.dtd"
   xmlns:inkscape="http://www.inkscape.org/namespaces/inkscape"
   version="1.1"
   id="Capa_1"
   x="0px"
   y="0px"
   width="22"
   height="22"
   viewBox="0 0 22 22"
   xml:space="preserve"
   inkscape:version="0.48.5 r10040"
   sodipodi:docname="moderation.svg"><metadata
   id="metadata8340"><rdf:RDF><cc:Work
       rdf:about=""><dc:format>image/svg+xml</dc:format><dc:type
         rdf:resource="http://purl.org/dc/dcmitype/StillImage" /></cc:Work></rdf:RDF></metadata><defs
   id="defs8338" /><sodipodi:namedview
   pagecolor="#ffffff"
   bordercolor="#666666"
   borderopacity="1"
   objecttolerance="10"
   gridtolerance="10"
   guidetolerance="10"
   inkscape:pageopacity="0"
   inkscape:pageshadow="2"
   inkscape:window-width="1366"
   inkscape:window-height="706"
   id="namedview8336"
   showgrid="false"
   inkscape:zoom="1.0553099"
   inkscape:cx="95.393158"
   inkscape:cy="97.203768"
   inkscape:window-x="-8"
   inkscape:window-y="-8"
   inkscape:window-maximized="1"
   inkscape:current-layer="Capa_1"
   inkscape:snap-grids="true"><inkscape:grid
     type="xygrid"
     id="grid8875"
     empspacing="5"
     visible="true"
     enabled="true"
     snapvisiblegridlinesonly="true" /></sodipodi:namedview>
<g
   id="g8296"
   transform="matrix(0.02012241,0,0,0.02472314,2,-0.05771042)"
   style="fill:#7f7f7f;fill-opacity:1">
	<g
   id="g8298"
   style="fill:#7f7f7f;fill-opacity:1">
		<path
   d="M 795.396,328.522 H 779.968 C 721.63,183.859 594.144,83.23 446.667,83.23 299.194,83.23 171.77,183.858 113.369,328.522 H 97.94 c -32.105,0 -58.089,25.982 -58.089,58.087 v 202.939 c 0,32.108 25.983,58.092 58.089,58.092 h 23.735 16.366 l 172.586,141.292 h 69.021 v 2.998 c 0,10.618 8.681,19.363 19.362,19.363 h 91.759 c 10.679,0 19.425,-8.745 19.425,-19.363 v -33.855 c 0,-10.616 -8.746,-19.235 -19.425,-19.235 H 399.01 c -10.682,0 -19.362,8.619 -19.362,19.235 v 2.998 H 320.622 L 176.02,642.831 c 20.611,-8.933 35.104,-29.354 35.104,-53.281 V 386.61 c 0,-27.794 -19.615,-51.029 -45.725,-56.716 53.784,-117.801 159.654,-198.254 281.269,-198.254 121.741,0 227.616,80.453 281.334,198.254 -26.108,5.687 -45.725,28.922 -45.725,56.716 v 202.94 c 0,31.981 25.796,57.845 57.717,58.092 h 0.438 31.294 23.671 c 32.171,0 58.092,-25.982 58.092,-58.092 V 386.61 c -0.002,-32.105 -25.923,-58.088 -58.093,-58.088 z"
   id="path8300"
   inkscape:connector-curvature="0"
   style="fill:#7f7f7f;fill-opacity:1" />
		<path
   d="m 881.223,422.775 c -7.371,0 -13.307,5.996 -13.307,13.307 v 114.37 c 0,7.366 5.936,13.362 13.307,13.362 7.306,0 13.302,-5.996 13.302,-13.362 v -114.37 c -10e-4,-7.311 -5.997,-13.307 -13.302,-13.307 z"
   id="path8302"
   inkscape:connector-curvature="0"
   style="fill:#7f7f7f;fill-opacity:1" />
		<path
   d="M 13.242,422.775 C 5.87,422.775 0,428.771 0,436.082 v 114.37 c 0,7.366 5.87,13.362 13.242,13.362 7.37,0 13.368,-5.996 13.368,-13.362 v -114.37 c 0,-7.311 -5.998,-13.307 -13.368,-13.307 z"
   id="path8304"
   inkscape:connector-curvature="0"
   style="fill:#7f7f7f;fill-opacity:1" />
	</g>
</g>
<g
   id="g8306"
   transform="translate(0,-872.524)">
</g>
<g
   id="g8308"
   transform="translate(0,-872.524)">
</g>
<g
   id="g8310"
   transform="translate(0,-872.524)">
</g>
<g
   id="g8312"
   transform="translate(0,-872.524)">
</g>
<g
   id="g8314"
   transform="translate(0,-872.524)">
</g>
<g
   id="g8316"
   transform="translate(0,-872.524)">
</g>
<g
   id="g8318"
   transform="translate(0,-872.524)">
</g>
<g
   id="g8320"
   transform="translate(0,-872.524)">
</g>
<g
   id="g8322"
   transform="translate(0,-872.524)">
</g>
<g
   id="g8324"
   transform="translate(0,-872.524)">
</g>
<g
   id="g8326"
   transform="translate(0,-872.524)">
</g>
<g
   id="g8328"
   transform="translate(0,-872.524)">
</g>
<g
   id="g8330"
   transform="translate(0,-872.524)">
</g>
<g
   id="g8332"
   transform="translate(0,-872.524)">
</g>
<g
   id="g8334"
   transform="translate(0,-872.524)">
</g>
<path
   inkscape:connector-curvature="0"
   style="fill:#7f7f7f;fill-opacity:1;stroke:none"
   d="M 9,9 C 8.4460003,9 8.0000003,9.446 8.0000003,9.9999997 c 0,0.5539993 0.446,0.9999993 0.9999997,0.9999993 0.554,0 1,-0.446 1,-0.9999993 C 10,9.446 9.554,9 9,9 z"
   id="path3300" /><path
   inkscape:connector-curvature="0"
   style="fill:#7f7f7f;fill-opacity:1;stroke:none"
   d="m 13,9 c -0.554,0 -1,0.446 -1,1 0,0.554 0.446,1 1,1 0.554,0 1,-0.446 1,-1 0,-0.554 -0.446,-1 -1,-1 z"
   id="path3300-9" /><path
   inkscape:connector-curvature="0"
   style="fill:#7f7f7f;fill-opacity:1;stroke:none"
   d="m 8.430888,14.512762 -0.6143461,0.12145 c 0.3427718,1.058262 1.581294,1.836899 3.0717311,1.836899 0.735496,0 1.407913,-0.195728 1.942126,-0.516161 -0.01084,-0.0063 -0.02194,-0.01652 0.01978,-0.01506 0.537543,-0.328108 0.938397,-0.776451 1.109787,-1.305582 l -0.614346,-0.12145 c -0.273883,0.846989 -1.264693,1.4726 -2.457385,1.4726 -1.1926901,0 -2.1835015,-0.625611 -2.4573843,-1.4726 z"
   id="rect4108" /></svg>