<?xml version="1.0" encoding="UTF-8" standalone="no"?>
<!-- Generator: Adobe Illustrator 16.0.0, SVG Export Plug-In . SVG Version: 6.00 Build 0)  -->

<svg
   xmlns:dc="http://purl.org/dc/elements/1.1/"
   xmlns:cc="http://creativecommons.org/ns#"
   xmlns:rdf="http://www.w3.org/1999/02/22-rdf-syntax-ns#"
   xmlns:svg="http://www.w3.org/2000/svg"
   xmlns="http://www.w3.org/2000/svg"
   xmlns:sodipodi="http://sodipodi.sourceforge.net/DTD/sodipodi-0.dtd"
   xmlns:inkscape="http://www.inkscape.org/namespaces/inkscape"
   version="1.1"
   id="Capa_1"
   x="0px"
   y="0px"
   width="21.999998"
   height="22"
   viewBox="0 0 21.999998 22"
   xml:space="preserve"
   inkscape:version="0.48.5 r10040"
   sodipodi:docname="notification.svg"><metadata
   id="metadata3120"><rdf:RDF><cc:Work
       rdf:about=""><dc:format>image/svg+xml</dc:format><dc:type
         rdf:resource="http://purl.org/dc/dcmitype/StillImage" /><dc:title /></cc:Work></rdf:RDF></metadata><defs
   id="defs3118" /><sodipodi:namedview
   pagecolor="#ffffff"
   bordercolor="#666666"
   borderopacity="1"
   objecttolerance="10"
   gridtolerance="10"
   guidetolerance="10"
   inkscape:pageopacity="0"
   inkscape:pageshadow="2"
   inkscape:window-width="1366"
   inkscape:window-height="706"
   id="namedview3116"
   showgrid="false"
   inkscape:zoom="1.5417757"
   inkscape:cx="90.632109"
   inkscape:cy="34.774893"
   inkscape:window-x="-8"
   inkscape:window-y="-8"
   inkscape:window-maximized="1"
   inkscape:current-layer="g3079"
   fit-margin-top="0"
   fit-margin-left="0"
   fit-margin-right="0"
   fit-margin-bottom="0" />
<g
   id="g3079"
   transform="translate(-0.142,-590.281)">
	
<g
   id="_x37__29_"
   transform="matrix(0.02614391,0,0,0.0261318,3.1382875,593.281)">
		<g
   id="g3082">
			<path
   d="M 510.533,26.617 C 413.372,-28.176 289.119,4.341 233.021,99.238 l -81.25,137.471 -151.629,97.795 158.339,89.288 0,0 c -28.049,47.448 -11.403,108.116 37.167,135.513 48.591,27.396 110.708,11.138 138.757,-36.311 l 158.339,89.287 10.894,-177.147 81.25,-137.471 C 640.987,202.765 607.695,81.41 510.533,26.617 z M 215.967,524.932 C 186.817,508.49 176.841,472.098 193.65,443.62 l 105.566,59.525 c -16.829,28.478 -54.098,38.228 -83.249,21.787 z M 549.7,277.814 468.45,415.285 460.29,548.146 73.233,329.894 186.959,256.559 268.209,119.088 C 313.088,43.161 412.473,17.152 490.215,60.99 567.958,104.808 594.579,201.888 549.7,277.814 z"
   id="path3084"
   inkscape:connector-curvature="0" />
		</g>
	</g></g>
<g
   id="g3086"
   transform="translate(-0.142,-590.281)">
</g>
<g
   id="g3088"
   transform="translate(-0.142,-590.281)">
</g>
<g
   id="g3090"
   transform="translate(-0.142,-590.281)">
</g>
<g
   id="g3092"
   transform="translate(-0.142,-590.281)">
</g>
<g
   id="g3094"
   transform="translate(-0.142,-590.281)">
</g>
<g
   id="g3096"
   transform="translate(-0.142,-590.281)">
</g>
<g
   id="g3098"
   transform="translate(-0.142,-590.281)">
</g>
<g
   id="g3100"
   transform="translate(-0.142,-590.281)">
</g>
<g
   id="g3102"
   transform="translate(-0.142,-590.281)">
</g>
<g
   id="g3104"
   transform="translate(-0.142,-590.281)">
</g>
<g
   id="g3106"
   transform="translate(-0.142,-590.281)">
</g>
<g
   id="g3108"
   transform="translate(-0.142,-590.281)">
</g>
<g
   id="g3110"
   transform="translate(-0.142,-590.281)">
</g>
<g
   id="g3112"
   transform="translate(-0.142,-590.281)">
</g>
<g
   id="g3114"
   transform="translate(-0.142,-590.281)">
</g>
</svg>