<?xml version="1.0" encoding="UTF-8" standalone="no"?>
<!-- Generator: Adobe Illustrator 18.1.1, SVG Export Plug-In . SVG Version: 6.00 Build 0)  -->

<svg
   xmlns:dc="http://purl.org/dc/elements/1.1/"
   xmlns:cc="http://creativecommons.org/ns#"
   xmlns:rdf="http://www.w3.org/1999/02/22-rdf-syntax-ns#"
   xmlns:svg="http://www.w3.org/2000/svg"
   xmlns="http://www.w3.org/2000/svg"
   xmlns:sodipodi="http://sodipodi.sourceforge.net/DTD/sodipodi-0.dtd"
   xmlns:inkscape="http://www.inkscape.org/namespaces/inkscape"
   version="1.1"
   id="Capa_1"
   x="0px"
   y="0px"
   viewBox="0 0 22 22"
   xml:space="preserve"
   inkscape:version="0.48.5 r10040"
   width="100%"
   height="100%"
   sodipodi:docname="settings.svg"><metadata
   id="metadata6481"><rdf:RDF><cc:Work
       rdf:about=""><dc:format>image/svg+xml</dc:format><dc:type
         rdf:resource="http://purl.org/dc/dcmitype/StillImage" /></cc:Work></rdf:RDF></metadata><defs
   id="defs6479" /><sodipodi:namedview
   pagecolor="#ffffff"
   bordercolor="#666666"
   borderopacity="1"
   objecttolerance="10"
   gridtolerance="10"
   guidetolerance="10"
   inkscape:pageopacity="0"
   inkscape:pageshadow="2"
   inkscape:window-width="1366"
   inkscape:window-height="706"
   id="namedview6477"
   showgrid="false"
   inkscape:zoom="21.45"
   inkscape:cx="8.836235"
   inkscape:cy="11.798709"
   inkscape:window-x="-8"
   inkscape:window-y="-8"
   inkscape:window-maximized="1"
   inkscape:current-layer="Capa_1" />
<g
   id="g6439"
   transform="matrix(0.90909087,0,0,0.90909088,1,-0.44999931)">
	<g
   id="g6441">
		<path
   style="fill:#7f7f7f;fill-opacity:1"
   d="M 17.732995,8.0437856 19.869612,5.9024958 17.686275,3.7253881 15.552772,5.8604487 C 14.660438,5.253101 13.638848,4.8326295 12.540951,4.6208365 V 1.5949994 H 9.4574936 V 4.6223938 C 8.36271,4.8357441 7.3426775,5.2546583 6.4487864,5.8620059 L 4.3090538,3.7269453 2.1319461,5.9040531 4.2623347,8.0453429 C 3.6627736,8.9330048 3.2391876,9.9530374 3.0258372,11.057165 H 0 v 3.0819 h 3.0258372 c 0.2133504,1.094782 0.6369364,2.114815 1.2364975,3.011821 l -2.1303886,2.13506 2.1771077,2.177108 2.1381752,-2.13506 c 0.8923339,0.604232 1.9139237,1.027819 3.0102646,1.241169 V 23.595 h 3.0818984 v -3.028951 c 1.097899,-0.213351 2.116374,-0.63538 3.011823,-1.24117 l 2.133503,2.131946 2.183337,-2.175551 -2.136618,-2.13506 c 0.607347,-0.893891 1.026262,-1.913924 1.236498,-3.013378 h 3.032066 v -3.078787 h -3.03051 C 18.759256,9.9514801 18.340342,8.9361194 17.732995,8.0437856 z m -6.732216,7.9142064 c -1.8531888,0 -3.3637715,-1.50591 -3.3637715,-3.363771 0,-1.857861 1.5105827,-3.3622143 3.3637715,-3.3622143 1.856304,0 3.3591,1.5043533 3.3591,3.3622143 0,1.857861 -1.50124,3.363771 -3.3591,3.363771 z"
   id="path6443"
   inkscape:connector-curvature="0" />
		
	</g>
</g>
<g
   id="g6447"
   transform="translate(0,-1.595)">
</g>
<g
   id="g6449"
   transform="translate(0,-1.595)">
</g>
<g
   id="g6451"
   transform="translate(0,-1.595)">
</g>
<g
   id="g6453"
   transform="translate(0,-1.595)">
</g>
<g
   id="g6455"
   transform="translate(0,-1.595)">
</g>
<g
   id="g6457"
   transform="translate(0,-1.595)">
</g>
<g
   id="g6459"
   transform="translate(0,-1.595)">
</g>
<g
   id="g6461"
   transform="translate(0,-1.595)">
</g>
<g
   id="g6463"
   transform="translate(0,-1.595)">
</g>
<g
   id="g6465"
   transform="translate(0,-1.595)">
</g>
<g
   id="g6467"
   transform="translate(0,-1.595)">
</g>
<g
   id="g6469"
   transform="translate(0,-1.595)">
</g>
<g
   id="g6471"
   transform="translate(0,-1.595)">
</g>
<g
   id="g6473"
   transform="translate(0,-1.595)">
</g>
<g
   id="g6475"
   transform="translate(0,-1.595)">
</g>
</svg>